<?xml version="1.0" encoding="UTF-8"?>
<svg id="Calque_1" xmlns="http://www.w3.org/2000/svg" viewBox="0 0 635.03 519.23">
  <defs>
    <style>
      .cls-1 {
        fill: #2e85cc;
      }
    </style>
  </defs>
  <path class="cls-1" d="M323.4,479.46c-58.08,0-112.68-22.62-153.75-63.68-41.07-41.07-63.68-95.67-63.68-153.75s22.62-112.68,63.68-153.75c41.07-41.07,95.67-63.68,153.75-63.68s112.68,22.62,153.75,63.68c41.07,41.07,63.68,95.67,63.68,153.75s-22.62,112.68-63.68,153.75c-41.07,41.07-95.67,63.68-153.75,63.68ZM323.4,52.6c-115.48,0-209.43,93.95-209.43,209.43s93.95,209.43,209.43,209.43,209.43-93.95,209.43-209.43S438.88,52.6,323.4,52.6Z"/>
  <g>
    <path class="cls-1" d="M445.67,337.74c-2.14,2.72-5.16,2.63-8.18,2.7-17.3.42-34.53,1.56-51.41,5.78-20.63,5.16-39.56,13.6-55.25,28.39-4.96,4.67-9.02,4.95-13.6.66-20.48-19.21-45.45-28.18-72.63-32.22-.98-.15-1.92-.5-2.88-.75-11.76-.66-23.52-1.23-35.26-2.03-4.01-.27-7.48-4.31-7.45-8.03.03-3.79,3.95-7.93,7.99-8.16,2.64-.15,5.31.08,7.96.14,38.23.2,74.37,7.43,105.47,31.44,2.32,1.79,3.81,2.13,6.36.09,15.27-12.29,32.75-20.18,51.63-25.06,19.76-5.1,39.87-7.15,60.26-6.72,3.59.08,6.7.99,8.27,4.42,1.5,3.27.99,6.47-1.28,9.35Z"/>
    <path class="cls-1" d="M409.71,196.55c-30.08-59.91-99.62-51.08-156.11-49.34-7.08,1.26-11.86,6.74-13.3,13.74-2.12,48.72.16,97.71-.86,146.49-.12,2.97,1.44,4.76,4.4,4.93,10.96,1.37,21.78,3.49,32.24,6.57,10.93,3.2,21.52,7.42,31.73,12.86,7.2,4.4,15.91,6.32,24,3.34,2.33-.76,4.63-1.89,6.83-3,14.49-7.64,29.71-12.91,45.54-16.91,38.18-24.88,45.17-81.26,25.63-118.5l-.09-.18ZM355.1,284.63c-6.66,5.99-15.02,9.36-23.47,11.94-13.5,2.74-27.55,1.06-41.26,1.61-1.42.03-3.15-.22-3.92-1.41-.98-1.48-.8-3.87-.84-5.71.07-34.41.09-68.87.18-103.24.07-1.62.59-2.73,2.13-3.03,16.58-.07,33.76-2.03,49.86,3.09,39.43,11.62,47.86,70.2,17.46,96.62l-.15.13Z"/>
  </g>
</svg>